<?xml version="1.0" encoding="UTF-8"?>
<svg id="Layer_1" data-name="Layer 1" xmlns="http://www.w3.org/2000/svg" viewBox="0 0 107.29 124.73">
  <defs>
    <style>
      .cls-1 {
        fill: #12120d;
      }

      .cls-2 {
        fill: #fabb15;
      }

      .cls-3 {
        fill: #e83f31;
      }

      .cls-4 {
        fill: #076a74;
      }
    </style>
  </defs>
  <g>
    <path class="cls-1" d="M11.19,95.51h3.77c2.19,0,3.2,1.31,3.2,3.44v.83c0,2.35-.91,3.6-3.25,3.6h-.7v4.73h-3.01v-12.6ZM14.2,100.96h.25c.49,0,.66-.25.66-1v-1.36c0-.68-.27-.85-.68-.85h-.23v3.22Z"/>
    <path class="cls-1" d="M26.02,98.8v6.02c0,2.55-1.4,3.48-3.59,3.48s-3.37-1-3.37-3.48v-6.17c0-2.33,1.44-3.33,3.44-3.33s3.52,1.02,3.52,3.48ZM22.07,98.45v6.74c0,.47.13.76.45.76.28,0,.45-.25.45-.76v-6.75c0-.57-.13-.74-.47-.74-.28,0-.44.19-.44.76Z"/>
    <path class="cls-1" d="M26.7,106.09l2.99-8.06h-2.69v-2.52h5.77v2.18l-2.76,7.91h2.86l-.32,2.52h-5.85v-2.02Z"/>
    <path class="cls-1" d="M40.43,98.8v6.02c0,2.55-1.4,3.48-3.59,3.48s-3.37-1-3.37-3.48v-6.17c0-2.33,1.44-3.33,3.44-3.33s3.52,1.02,3.52,3.48ZM36.48,98.45v6.74c0,.47.13.76.45.76.28,0,.45-.25.45-.76v-6.75c0-.57-.13-.74-.47-.74-.28,0-.44.19-.44.76Z"/>
    <path class="cls-1" d="M44.56,102.8v5.32h-2.99v-12.6h3.73c2.46,0,3.24,1.25,3.24,3.24v.45c0,1.42-.47,2.14-1.21,2.52.91.42,1.15,1.12,1.15,2.95,0,1.51-.02,2.95.04,3.44h-2.91c-.13-.23-.17-1.1-.17-3.97,0-1.25-.11-1.34-.72-1.34h-.15ZM44.58,100.56h.23c.49,0,.7-.17.7-.96v-1c0-.7-.17-.85-.76-.85h-.17v2.82Z"/>
    <path class="cls-1" d="M52.65,95.51v12.6h-2.99v-12.6h2.99Z"/>
    <path class="cls-1" d="M56.46,103.99v1.02c0,.76.13.95.42.95.27,0,.36-.27.36-.74,0-.95-.11-1.23-1.27-2.31-1.53-1.44-2.25-2.18-2.25-4.01,0-2.02.76-3.58,3.2-3.58,2.69,0,3.16,1.65,3.16,3.35v.78h-2.65v-.97c0-.64-.11-.81-.4-.81-.23,0-.36.19-.36.76,0,.66.11.93,1.06,1.78,1.72,1.53,2.54,2.33,2.54,4.33,0,2.31-.7,3.77-3.37,3.77-2.38,0-3.29-1.31-3.29-3.56v-.76h2.86ZM55.53,94.81l-1.68-1.97h2.38l.68.83.62-.83h2.42l-1.76,1.97h-2.67Z"/>
    <path class="cls-1" d="M62.19,97.99h-1.5v-2.48h5.98v2.48h-1.49v10.12h-2.99v-10.12Z"/>
    <path class="cls-1" d="M69.72,105.47l-.15,2.65h-3.07l1.34-12.6h4.79l1.32,12.6h-3.1l-.15-2.65h-.98ZM70.57,102.97c-.06-.96-.28-4.26-.34-4.94h-.13c-.02.55-.21,3.71-.26,4.94h.74Z"/>
    <path class="cls-1" d="M74.82,108.11v-12.6h3.14c.3,1.38,1.25,6.34,1.32,6.87h.13c-.21-1.99-.45-5.24-.45-6.41v-.45h2.82v12.6h-3.39c-.15-1.08-1.04-6.89-1.1-7.3h-.15c.09,1.4.34,5.54.34,7v.3h-2.67Z"/>
    <path class="cls-1" d="M89.79,103.44v1c0,1.95-.42,3.86-3.52,3.86-1.68,0-3.35-.59-3.35-3.59v-5.88c0-2.69,1.48-3.5,3.42-3.5,3.08,0,3.44,2.06,3.44,3.48v1.17h-3.05v-1.49c0-.51-.04-.81-.4-.81-.34,0-.42.25-.42.81v6.6c0,.62.08.85.38.85.34,0,.43-.23.43-.91v-1.59h3.05Z"/>
    <path class="cls-1" d="M96.09,102.72h-2.31v2.91h2.78l-.34,2.48h-5.45v-12.6h5.43v2.48h-2.42v2.25h2.31v2.48Z"/>
  </g>
  <g>
    <path class="cls-2" d="M73.29,75.71c-.24,1.86.61,2.82-1.36,4.16-1.34.91-4.32,1.55-4.17-.79.11-1.8,2.89-3.25,4.57-3,.3-1.51-.41-9.83.03-10.51.07-.11,1.49-.51,1.77-.52.79-.04,1.32.25,2.02.39.25.05.79.31.73-.13-1.72-.45-10.94-6.67-11.82-6.45-.29.08-3.4,3.76-4.48,3.93,1.38.93,3.25.63,4.79.36-.44,1.01-1.38,2.8-2.57,3.06-1.31.29-3.18-.18-4.52.51-.42.59.13,7.29-.12,8.75-.56,3.35-7.16,4-5.35.4.75-1.48,2.8-2.21,4.41-2.18v-9.23c0-.15-.31-.31-.54-.31-.96-.03-2.29.46-3.41.44-3.44-.07-7.09-1.8-9.61-4.07-.6-.54-1.09-1.76-1.85-1.65l-20.21,11.7c.16.67.66,1.71,1.42,1.68,1.4-.06,4.74-1.99,6.31-2.36l.31.06,4.09,4.33c-.04,1.25-2.62,6.07-2.3,6.82.21.49,5.72,3.77,6.29,3.81l.32-.08c.96-1.49,2.27-2.71,3.35-4.1,1.09-1.39,1.64-3.43,3.54-3.89.38-.09,1.5.02,1.5-.05v-4.79c-1.82.61-5.46-1.1-6.96.6-1.28,1.45,1.79,8.27-2.99,8.76-3.91.4-1.97-3.23.29-3.79.39-.1,1.45,0,1.51-.05.31-.3-.17-7.27-.02-8.52.1-.83.64-1.02,1.4-1.24,2.53-.75,5.14.59,7.73-.06v10.9c0,.34-1.07,1.1-1.28,1.3-.85.8,2.31.81,2.47.99.25.27.62,6.32,1.13,7.19.61.35,7.14.37,7.62.01l1.2-6.99c1.66-.18,4.11-1.47,5.59-1.63.43-.05.5.06.79.3.87.73,3.53,5.15,4.41,5.17.63.01,6.21-3.29,6.33-3.75l-1.89-5.83c-.33-.36-.44.03-.48.36Z"/>
    <path class="cls-4" d="M36.38,53.41c-2.39-1.55-1.67-3.12-3.5-4.66-.22-.19-.69-.17-.79-.28-.12-.14-.04-.66-.28-1.04-.84-1.36-3.07-3.47-4.1-4.77-2.3-2.91.3-4.44,1.78-6.86.85-1.38,1.29-3.05,2.53-4.17-.47-.27-1.07-.96-1.51-1.15-.44-.18-.82.05-1.13-.04-1.88-.58-2.05-1.46-3.47.59l-.71-.48-1.08.96c-.33-1.3.86-1.72,1.44-2.63-.73.03-2.18-1.02-2.74-.97-.35.03-3.51,5.48-3.64,6-.11.45-.11.45.12.85.45.75,3.45,2.75,4.34,3.58.29.28.92.74.91,1.15l-1.63,5.56-7.16,1.35c-.33,2.56-.25,5.07-.03,7.64l6.71.96.67.65c-.07,1.15.52,2.17.77,3.19.2.8.41,1.61.61,2.41-.94,1.07-5.07,3.52-5.53,4.54-.14.31.83,1.72.96,2.16l20-11.66c.42-1.28-2.69-2.3-3.55-2.86Z"/>
    <path class="cls-3" d="M91.5,54.26c.25-2.58.37-5.06-.01-7.64-.91-.09-5.29-1.21-5.75-.88-.62,3.7-1.67,7.84-4.07,10.8-3.94,4.87-6.98,2.71-9.59-1.79.06-.88-.23-2.02-1.2-2.16-.46-1.11-1.22-3.18-1.44-4.31l.42-.36c-.73-4.81-.06-6.01,2-3.61.74.51,1.34.63,1.8.34,2.24.28,4.52.21,6.8.04.71-.16,2.89-.87,3.25-1.44.37-.59-1.1-3.55-.98-3.83.22-.5,4.12-3.31,4.92-4.07.24-.22.72-.31.68-.79-.54-1.35-1.37-2.53-2.12-3.76-.22-.37-1.39-2.63-1.58-2.65-1.23.19-6.05,2.59-6.88,2.37-.69-.18-2.62-2.92-3.52-3.32-.47,3.06-1.52,6.27-3.3,8.8-2.81,3.98-5.63,4.68-8.92.66-2.11-2.58-4.39-9.05-4.08-12.34.03-.34.22-1.15.38-1.42.56-.97.91-.19,1.54.22,3.31,2.2,9.03,2.52,12.45.34.35-.22.87-1,1.13-1.05.71-.13.73,1.46,1.16.69.3-.52,1.43-3.49,1.22-3.83-.19-.3-5.63-3.5-6.06-3.56-.28-.04-.48-.03-.67.19l-4.19,5.18c-.31.2-2.28-.46-2.87-.61-.49-.13-3-.73-3.13-.83-.39-.29-.04-1.06-.47-1.33-.04-.81-.57-5.39-.83-5.76-.33-.47-1.92-.14-2.53-.23v23.72c6.84.89,11.43,5.53,12.71,12.22.06,2.17.02,4.35-.48,6.47-.05.19-.81.75-.44,1.4l20.45,11.79c.23-.57,1.08-1.62.73-2.16l-5.3-4.32,1.6-6.2,7.15-1Z"/>
    <path class="cls-2" d="M79.88,67.21c-.54,0-1.09,1.12-1.78,1.33-.65.2-4.81-.01-4.81.71v4.67c.37.07.55-.04.85-.23,1.06-.68,2.41-2.66,3.38-3.58.79-.23,5.31,2.3,6.46,2.38.9.06,1.3-1.16,1.73-1.8-.03-.34-5.49-3.47-5.83-3.48Z"/>
    <path class="cls-3" d="M65.05,35.79c1.99,1.03,3.51-.83,4.41-2.36-1.88.67-3.9.66-5.82.19-.19-.05-.61-.44-.41.17.15.44,1.41,1.8,1.82,2.01Z"/>
    <path class="cls-3" d="M80.48,55.23c-1.66-3.27-4.5-3.15-6.23,0,2.2-.49,4.03-.58,6.23,0Z"/>
    <path class="cls-4" d="M33.73,44.45c1.5-.61,1.69-2.16,1.91-3.59-.86.65-1.71,1.44-2.87,1.44l.96,2.15Z"/>
    <path class="cls-3" d="M63.86,29.43c-1.61-1.43-3.28.82-3.04,1.12,1.2-.52,2.39-.52,3.59,0,.14-.17-.4-.99-.55-1.12Z"/>
    <path class="cls-3" d="M79.28,49.36c1.34.05,2.36.34,3.59.84-.57-2.17-2.08-2.39-3.59-.84Z"/>
    <path class="cls-3" d="M71.61,30.55c-.8-2.04-2.36-2.08-3.59-.36-.05.63.1.23.42.19,1.16-.18,2.01-.41,3.17.17Z"/>
    <path class="cls-4" d="M36.61,30.79c.02-.82-.06-1.64.06-2.46.4-2.61,2.38-3.32-1.02-5.1.77-.64,3.18,1.12,3.3,1.71.26,1.36-1.74,4.33.06,5.6-.23-.56.39-.73.4-.77.08-.2-.43-.82.54-1.03.1-.02,1.86.35,2.01.41.89.36.77,1.92,1,2.61.08.24.35.39.37.46-.15,1.89.74,2.53-1.44,2.64-.27.01-.23-.23-.96,0-.28.09-.76.47-.96.48-.07,0-1.35-.23-1.41-.27-.34-.21.13-1.62-1.07-1.13-.62.25-.6,1.56-1.23,2.13-.75.68-1.95.24-2.52,1.31,2.36-.11,6.36-2.67,5.51,1.8-.15.77-1.26,2.13-1.68,2.88-.38.68-2.57,4.24-2.57,4.63.01,2.38,2.86,4.68,4.49,6.16v-5.15c0-.45,1.1-3.3,1.39-3.88,2.1-4.2,6.64-7.27,11.31-7.74V12.33c-.48.1-1.95-.21-2.19.14-.59.86-.69,5.54-1.21,6.89-.2.5-2.52.72-3.18.9-.97.26-1.9.66-2.87.91-.85-.76-4-5.46-4.81-5.48-.6-.01-6.02,3.05-6.25,3.6-.09,1.41,2.52,5.99,2.3,7.02-.04.19-2.64,2.09-2.89,2.68,1.66.98,3.53,2.06,5.51,1.8Z"/>
    <path class="cls-3" d="M71.85,50.19c1.22-.42,2.23-.93,3.6-.72-1.37-1.83-2.92-1.33-3.6.72Z"/>
  </g>
</svg>