<?xml version="1.0" encoding="UTF-8"?>
<svg id="Layer_1" data-name="Layer 1" xmlns="http://www.w3.org/2000/svg" viewBox="0 0 128.18 114.03">
  <defs>
    <style>
      .cls-1 {
        fill: #12120d;
      }
    </style>
  </defs>
  <g>
    <path class="cls-1" d="M93.28,16.2c2.62,2.59,1.06,8.18.59,11.59-1.34,9.88-3.15,18.03-11.27,24.53-2.32,1.86-6.78,3.44-8.29,4.82-2.89,2.66-5.24,8.14-9.6,11.58-9.11,7.19-23.45-5.62-27.16-14.2-2.02-4.67-3.95-14.97-4.13-20.08-.44-12.29,11.57-3.22,18.21-5.03,1.15-.82.98-14.52,3.75-17.43,4.06-4.27,8.81,1.17,12.87,2.76,4.36,1.71,9.19,2.19,13.85,1.77,3.44-.32,8.33-3.14,11.18-.32ZM75.81,52.33c6.43-3.01,11.25-9.13,12.96-16.02.56-2.25,2.72-16.15,1.94-17.28-.87-1.26-6.32.87-8.11,1.03-7.45.68-12.85-.49-19.41-3.77-1.68-.84-3-2.63-4.99-2.23l-2.56,14.57c5.55.33,13.77-10.46,17.74-2.87,1.02,1.94,2.71,13.47,2.92,16.24.25,3.44,0,6.94-.49,10.33ZM68.11,26.71c-1.18.31-5.11,3.23-7.09,4.03-3.92,1.59-8.97,2.63-13.22,2.45-2.96-.13-7.48-2.05-9.6-2.01-1.6.03-1.28,2.18-1.21,3.25.34,5.81,2.53,16.82,5.46,21.78,2.66,4.51,12.5,12.36,17.88,11.16,2.49-.56,9.2-8.78,10.38-11.3,3.21-6.86,2.02-20.66-.27-27.84-.43-1.35-.73-1.91-2.32-1.5Z"/>
    <path class="cls-1" d="M65.1,49.42c5.09,11.03-12.44,17.21-16.04,6.72-2.71-7.9,3.76-3.36,7.79-3.85,2.38-.28,7.04-4.24,8.25-2.88ZM62.19,54.35c-3.03,1.32-5.82,1.53-9.07,1.76,2.75,3.18,7.68,2.18,9.07-1.76Z"/>
    <path class="cls-1" d="M62.03,43.09c-1.4,1.13-3.29.43-3.25-1.52,1.13-3.11,4.85-4.61,7.97-3.64,1.58.5,4.48,3.37,1.62,4.22-2.17.65-2.93-1.93-5.39-.35-.51.32-.64,1.03-.95,1.28Z"/>
    <path class="cls-1" d="M46.44,40.33c3.23-.44,8.44,2.53,3.99,4.86-1.16-.37-2.18-1.56-3.51-1.35-1.78.27-2.62,3.14-4.4,2.21-2.74-2.33,1.43-5.38,3.91-5.72Z"/>
  </g>
  <g>
    <path class="cls-1" d="M12.79,96.42v-16.46h3.54c.65,0,1.22.08,1.71.25.49.17.94.47,1.34.9s.68.94.83,1.51c.15.58.23,1.36.23,2.35,0,.74-.04,1.36-.13,1.87-.08.51-.27.99-.54,1.43-.32.54-.76.96-1.29,1.26-.54.3-1.25.45-2.13.45h-1.2v6.43h-2.36ZM15.15,82.18v5.6h1.13c.48,0,.85-.07,1.11-.21.26-.14.45-.33.58-.58.12-.23.2-.52.22-.86.02-.34.03-.72.03-1.13,0-.39,0-.75-.02-1.1-.02-.35-.08-.65-.21-.91-.12-.26-.31-.46-.56-.6-.25-.14-.6-.21-1.06-.21h-1.23Z"/>
    <path class="cls-1" d="M22.06,83.84c0-.66.12-1.25.35-1.76.23-.51.54-.93.92-1.27.37-.32.79-.57,1.26-.74.47-.17.94-.25,1.42-.25s.95.08,1.42.25c.47.17.9.42,1.28.74.37.34.67.76.9,1.27s.35,1.09.35,1.76v8.69c0,.69-.12,1.29-.35,1.78s-.53.9-.9,1.23c-.39.34-.81.59-1.28.76s-.94.25-1.42.25-.95-.08-1.42-.25-.89-.42-1.26-.76c-.39-.32-.69-.73-.92-1.23-.23-.49-.35-1.09-.35-1.78v-8.69ZM24.42,92.54c0,.57.16.99.47,1.26.32.27.69.4,1.12.4s.81-.13,1.12-.4c.32-.27.47-.69.47-1.26v-8.69c0-.57-.16-.99-.47-1.26-.32-.27-.69-.4-1.12-.4s-.81.14-1.12.4c-.32.27-.47.69-.47,1.26v8.69Z"/>
    <path class="cls-1" d="M31.29,96.42v-2.08l4.44-12.16h-4.21v-2.22h6.77v1.87l-4.53,12.37h4.53v2.22h-7.01Z"/>
    <path class="cls-1" d="M39.61,83.84c0-.66.12-1.25.35-1.76.23-.51.54-.93.92-1.27.37-.32.79-.57,1.26-.74.47-.17.94-.25,1.42-.25s.95.08,1.42.25c.47.17.9.42,1.28.74.37.34.67.76.9,1.27s.35,1.09.35,1.76v8.69c0,.69-.12,1.29-.35,1.78s-.53.9-.9,1.23c-.39.34-.81.59-1.28.76s-.94.25-1.42.25-.95-.08-1.42-.25-.89-.42-1.26-.76c-.39-.32-.69-.73-.92-1.23-.23-.49-.35-1.09-.35-1.78v-8.69ZM41.97,92.54c0,.57.16.99.47,1.26.32.27.69.4,1.12.4s.81-.13,1.12-.4c.32-.27.47-.69.47-1.26v-8.69c0-.57-.16-.99-.47-1.26-.32-.27-.69-.4-1.12-.4s-.81.14-1.12.4c-.32.27-.47.69-.47,1.26v8.69Z"/>
    <path class="cls-1" d="M49.6,96.42v-16.46h3.79c2.77,0,4.16,1.61,4.16,4.83,0,.97-.15,1.8-.45,2.47-.3.68-.83,1.23-1.58,1.64l2.54,7.51h-2.5l-2.2-7.03h-1.41v7.03h-2.36ZM51.96,82.18v5.13h1.34c.42,0,.75-.06.99-.17s.44-.28.58-.5c.12-.22.21-.48.25-.8s.07-.68.07-1.1-.02-.78-.07-1.1c-.05-.32-.14-.59-.28-.82-.29-.43-.85-.65-1.67-.65h-1.23Z"/>
    <path class="cls-1" d="M59.52,96.42v-16.46h2.36v16.46h-2.36Z"/>
    <path class="cls-1" d="M71.8,84.7h-2.36v-.53c0-.54-.13-1.01-.38-1.4s-.68-.59-1.28-.59c-.32,0-.59.06-.79.19-.2.12-.36.28-.49.46-.12.2-.21.43-.25.68s-.07.52-.07.8c0,.32.01.59.03.81.02.22.08.41.17.58.09.17.23.32.4.44.18.12.42.25.73.37l1.8.72c.52.2.95.44,1.27.71.32.27.58.58.76.94.17.37.29.79.35,1.26s.09,1.01.09,1.61c0,.69-.07,1.34-.21,1.93-.14.59-.36,1.1-.67,1.51-.32.43-.75.77-1.27,1.02-.52.25-1.16.37-1.92.37-.57,0-1.1-.1-1.6-.3-.49-.2-.92-.48-1.27-.83-.35-.35-.64-.77-.84-1.24-.21-.47-.31-.98-.31-1.54v-.88h2.36v.74c0,.43.13.82.38,1.17.25.35.68.52,1.28.52.4,0,.71-.06.94-.17.22-.12.4-.28.52-.5.12-.22.2-.47.22-.77.02-.3.03-.64.03-1.01,0-.43-.02-.79-.05-1.06s-.09-.5-.19-.67c-.11-.17-.25-.31-.43-.42-.18-.11-.41-.22-.71-.35l-1.69-.69c-1.02-.42-1.7-.97-2.05-1.65-.35-.69-.52-1.54-.52-2.58,0-.62.08-1.2.25-1.76.17-.55.42-1.03.76-1.43.32-.4.74-.72,1.24-.96.5-.24,1.1-.36,1.79-.36.59,0,1.12.11,1.61.32.49.22.91.5,1.26.86.71.74,1.06,1.59,1.06,2.54v1.16ZM71.11,75.96l-2.27,3.26h-2.17l-2.27-3.26h1.8l1.55,2.2,1.55-2.2h1.8Z"/>
    <path class="cls-1" d="M75.11,96.42v-14.24h-2.73v-2.22h7.82v2.22h-2.73v14.24h-2.36Z"/>
    <path class="cls-1" d="M78.9,96.42l3.68-16.46h1.97l3.68,16.46h-2.36l-.69-3.54h-3.21l-.69,3.54h-2.36ZM84.72,90.67l-1.16-5.97h-.05l-1.16,5.97h2.36Z"/>
    <path class="cls-1" d="M89.28,96.42v-16.46h2.27l3.56,9.92h.05v-9.92h2.36v16.46h-2.22l-3.61-9.9h-.05v9.9h-2.36Z"/>
    <path class="cls-1" d="M107.13,91.73v1.02c0,.51-.1.99-.29,1.44-.19.46-.46.86-.8,1.21-.34.35-.74.64-1.19.84-.46.21-.94.31-1.47.31-.45,0-.9-.06-1.36-.19-.46-.12-.88-.34-1.25-.65-.37-.31-.67-.71-.91-1.19-.24-.49-.36-1.11-.36-1.86v-9.06c0-.54.09-1.04.28-1.5.18-.46.45-.86.79-1.2.34-.34.74-.6,1.21-.8.47-.19.99-.29,1.56-.29,1.11,0,2.01.36,2.71,1.09.34.35.61.77.8,1.26.19.49.29,1.01.29,1.58v.93h-2.36v-.79c0-.46-.13-.86-.39-1.2-.26-.34-.62-.51-1.06-.51-.59,0-.97.18-1.17.54-.19.36-.29.82-.29,1.38v8.42c0,.48.1.88.31,1.2s.58.49,1.12.49c.15,0,.32-.03.5-.08.18-.05.34-.14.5-.27.14-.12.25-.29.35-.51s.14-.49.14-.81v-.81h2.36Z"/>
    <path class="cls-1" d="M109.05,96.42v-16.46h7.03v2.22h-4.67v4.83h4.07v2.22h-4.07v4.83h4.67v2.36h-7.03Z"/>
  </g>
</svg>