<svg width="346" height="61" viewBox="0 0 346 61" fill="none" xmlns="http://www.w3.org/2000/svg">
<path d="M59.8718 5.82205C62.4918 8.41205 60.9318 14.0021 60.4618 17.4121C59.1218 27.2921 57.3118 35.4421 49.1918 41.9421C46.8718 43.8021 42.4118 45.3821 40.9018 46.7621C38.0118 49.4221 35.6618 54.9021 31.3018 58.3421C22.1918 65.5321 7.85176 52.7221 4.14176 44.1421C2.12176 39.4721 0.191763 29.1721 0.0117629 24.0621C-0.428237 11.7721 11.5818 20.8421 18.2218 19.0321C19.3718 18.2121 19.2018 4.51205 21.9718 1.60205C26.0318 -2.66795 30.7818 2.77205 34.8418 4.36205C39.2018 6.07205 44.0318 6.55205 48.6918 6.13205C52.1318 5.81205 57.0218 2.99205 59.8718 5.81205V5.82205ZM42.4018 41.9521C48.8318 38.9421 53.6518 32.8221 55.3618 25.9321C55.9218 23.6821 58.0818 9.78205 57.3018 8.65205C56.4318 7.39205 50.9818 9.52205 49.1918 9.68205C41.7418 10.3621 36.3418 9.19205 29.7818 5.91205C28.1018 5.07205 26.7818 3.28205 24.7918 3.68205L22.2318 18.2521C27.7818 18.5821 36.0018 7.79205 39.9718 15.3821C40.9918 17.3221 42.6818 28.8521 42.8918 31.6221C43.1418 35.0621 42.8918 38.5621 42.4018 41.9521ZM34.7018 16.3321C33.5218 16.6421 29.5918 19.5621 27.6118 20.3621C23.6918 21.9521 18.6418 22.9921 14.3918 22.8121C11.4318 22.6821 6.91177 20.7621 4.79177 20.8021C3.19177 20.8321 3.51177 22.9821 3.58177 24.0521C3.92177 29.8621 6.11177 40.8721 9.04177 45.8321C11.7018 50.3421 21.5418 58.1921 26.9218 56.9921C29.4118 56.4321 36.1218 48.2121 37.3018 45.6921C40.5118 38.8321 39.3218 25.0321 37.0318 17.8521C36.6018 16.5021 36.3018 15.9421 34.7118 16.3521L34.7018 16.3321Z" fill="#12120D"/>
<path d="M31.6917 39.042C36.7817 50.072 19.2517 56.252 15.6517 45.762C12.9417 37.862 19.4117 42.402 23.4417 41.912C25.8217 41.632 30.4817 37.672 31.6917 39.032V39.042ZM28.7817 43.972C25.7517 45.292 22.9617 45.502 19.7117 45.732C22.4617 48.912 27.3917 47.912 28.7817 43.972Z" fill="#12120D"/>
<path d="M28.6217 32.7118C27.2217 33.8418 25.3317 33.1418 25.3717 31.1918C26.5017 28.0818 30.2217 26.5818 33.3417 27.5518C34.9217 28.0518 37.8217 30.9218 34.9617 31.7718C32.7917 32.4218 32.0317 29.8418 29.5717 31.4218C29.0617 31.7418 28.9317 32.4518 28.6217 32.7018V32.7118Z" fill="#12120D"/>
<path d="M13.0335 29.9519C16.2635 29.5119 21.4735 32.4819 17.0235 34.8119C15.8635 34.4419 14.8435 33.2519 13.5135 33.4619C11.7335 33.7319 10.8935 36.6019 9.1135 35.6719C6.3735 33.3419 10.5435 30.2919 13.0235 29.9519H13.0335Z" fill="#12120D"/>
<path d="M95.2344 49.6119V9.69922H103.818C105.394 9.69922 106.777 9.89321 107.965 10.3054C109.153 10.7176 110.244 11.4451 111.214 12.4878C112.184 13.5305 112.863 14.7671 113.227 16.1493C113.59 17.5557 113.784 19.447 113.784 21.8476C113.784 23.642 113.687 25.1454 113.469 26.382C113.275 27.6187 112.814 28.7826 112.16 29.8495C111.384 31.159 110.317 32.1774 109.032 32.9048C107.722 33.6323 106.001 33.996 103.867 33.996H100.957V49.5877H95.2344V49.6119ZM100.957 15.0823V28.6614H103.697C104.861 28.6614 105.758 28.4917 106.389 28.1522C107.019 27.8127 107.48 27.352 107.795 26.7458C108.086 26.1881 108.28 25.4849 108.328 24.6604C108.377 23.836 108.401 22.9145 108.401 21.9204C108.401 20.9747 108.401 20.1017 108.353 19.2531C108.304 18.4044 108.159 17.6769 107.843 17.0465C107.553 16.416 107.092 15.931 106.486 15.5916C105.879 15.2521 105.031 15.0823 103.915 15.0823H100.933H100.957Z" fill="#12120D"/>
<path d="M117.711 19.1072C117.711 17.5068 118.002 16.0762 118.56 14.8395C119.117 13.6028 119.869 12.5844 120.79 11.76C121.688 10.984 122.706 10.3778 123.846 9.96558C124.985 9.55336 126.125 9.35938 127.289 9.35938C128.453 9.35938 129.593 9.55336 130.732 9.96558C131.872 10.3778 132.915 10.984 133.836 11.76C134.733 12.5844 135.461 13.6028 136.018 14.8395C136.576 16.0762 136.867 17.4825 136.867 19.1072V40.179C136.867 41.8521 136.576 43.307 136.018 44.4952C135.461 45.6833 134.733 46.6775 133.836 47.4777C132.89 48.3021 131.872 48.9084 130.732 49.3206C129.593 49.7328 128.453 49.9268 127.289 49.9268C126.125 49.9268 124.985 49.7328 123.846 49.3206C122.706 48.9084 121.688 48.3021 120.79 47.4777C119.845 46.7018 119.117 45.7076 118.56 44.4952C118.002 43.307 117.711 41.8521 117.711 40.179V19.1072ZM123.434 40.2032C123.434 41.5854 123.822 42.6038 124.573 43.2585C125.349 43.9132 126.246 44.2284 127.289 44.2284C128.332 44.2284 129.253 43.9132 130.005 43.2585C130.781 42.6038 131.144 41.5854 131.144 40.2032V19.1314C131.144 17.7493 130.757 16.7308 130.005 16.0761C129.229 15.4214 128.332 15.1062 127.289 15.1062C126.246 15.1062 125.325 15.4457 124.573 16.0761C123.797 16.7308 123.434 17.7493 123.434 19.1314V40.2032Z" fill="#12120D"/>
<path d="M140.095 49.6119V44.5683L150.861 15.0823H140.652V9.69922H157.068V14.2337L146.084 44.2288H157.068V49.6119H140.07H140.095Z" fill="#12120D"/>
<path d="M160.27 19.1072C160.27 17.5068 160.561 16.0762 161.118 14.8395C161.676 13.6028 162.428 12.5844 163.349 11.76C164.246 10.984 165.265 10.3778 166.404 9.96558C167.544 9.55336 168.684 9.35938 169.848 9.35938C171.012 9.35938 172.151 9.55336 173.291 9.96558C174.431 10.3778 175.473 10.984 176.395 11.76C177.292 12.5844 178.019 13.6028 178.577 14.8395C179.135 16.0762 179.426 17.4825 179.426 19.1072V40.179C179.426 41.8521 179.135 43.307 178.577 44.4952C178.019 45.6833 177.292 46.6775 176.395 47.4777C175.449 48.3021 174.431 48.9084 173.291 49.3206C172.151 49.7328 171.012 49.9268 169.848 49.9268C168.684 49.9268 167.544 49.7328 166.404 49.3206C165.265 48.9084 164.246 48.3021 163.349 47.4777C162.403 46.7018 161.676 45.7076 161.118 44.4952C160.561 43.307 160.27 41.8521 160.27 40.179V19.1072ZM165.992 40.2032C165.992 41.5854 166.38 42.6038 167.132 43.2585C167.908 43.9132 168.805 44.2284 169.848 44.2284C170.89 44.2284 171.812 43.9132 172.563 43.2585C173.339 42.6038 173.703 41.5854 173.703 40.2032V19.1314C173.703 17.7493 173.315 16.7308 172.563 16.0761C171.787 15.4214 170.89 15.1062 169.848 15.1062C168.805 15.1062 167.883 15.4457 167.132 16.0761C166.356 16.7308 165.992 17.7493 165.992 19.1314V40.2032Z" fill="#12120D"/>
<path d="M184.501 49.6119V9.69922H193.691C200.408 9.69922 203.778 13.6032 203.778 21.4112C203.778 23.7632 203.414 25.7758 202.687 27.4005C201.96 29.0494 200.674 30.383 198.856 31.3772L205.015 49.5877H198.953L193.618 32.5411H190.199V49.5877H184.477L184.501 49.6119ZM190.223 15.0823V27.5217H193.473C194.491 27.5217 195.291 27.3762 195.873 27.1095C196.455 26.8428 196.94 26.4305 197.28 25.8971C197.571 25.3636 197.789 24.7332 197.886 23.9572C197.983 23.1813 198.056 22.3083 198.056 21.2899C198.056 20.2715 198.007 19.3985 197.886 18.6226C197.765 17.8466 197.546 17.1919 197.207 16.6342C196.504 15.5916 195.146 15.0581 193.157 15.0581H190.175L190.223 15.0823Z" fill="#12120D"/>
<path d="M208.551 49.6119V9.69922H214.273V49.6119H208.551Z" fill="#12120D"/>
<path d="M238.326 21.193H232.603V19.9079C232.603 18.5984 232.288 17.4588 231.681 16.5131C231.075 15.5674 230.033 15.0824 228.578 15.0824C227.802 15.0824 227.147 15.2279 226.662 15.5432C226.177 15.8341 225.789 16.2221 225.474 16.6586C225.183 17.1436 224.965 17.7013 224.868 18.3075C224.771 18.9137 224.698 19.5684 224.698 20.2473C224.698 21.0233 224.722 21.678 224.771 22.2115C224.819 22.7449 224.965 23.2056 225.183 23.6178C225.401 24.0301 225.741 24.3938 226.153 24.6848C226.589 24.9757 227.171 25.291 227.923 25.582L232.288 27.3278C233.549 27.8128 234.591 28.3948 235.367 29.0495C236.143 29.7042 236.774 30.4559 237.21 31.3288C237.622 32.226 237.913 33.2444 238.059 34.3841C238.204 35.5238 238.277 36.8332 238.277 38.2881C238.277 39.9612 238.107 41.5373 237.768 42.968C237.428 44.3986 236.895 45.6353 236.143 46.6295C235.367 47.6722 234.325 48.4966 233.064 49.1028C231.803 49.709 230.251 50 228.408 50C227.026 50 225.741 49.7575 224.528 49.2725C223.34 48.7876 222.297 48.1086 221.449 47.2599C220.6 46.4112 219.897 45.3928 219.412 44.2531C218.903 43.1135 218.66 41.8768 218.66 40.5189V38.3851H224.383V40.1794C224.383 41.2221 224.698 42.1678 225.304 43.0165C225.91 43.8652 226.953 44.2774 228.408 44.2774C229.378 44.2774 230.13 44.1319 230.687 43.8652C231.221 43.5742 231.657 43.1862 231.948 42.6528C232.239 42.1193 232.433 41.5131 232.482 40.7856C232.53 40.0582 232.554 39.2337 232.554 38.3366C232.554 37.2939 232.506 36.4209 232.433 35.7662C232.36 35.1115 232.215 34.5538 231.972 34.1416C231.706 33.7294 231.366 33.3899 230.93 33.1232C230.493 32.8565 229.936 32.5897 229.208 32.2745L225.11 30.6014C222.637 29.5829 220.988 28.2493 220.139 26.6004C219.291 24.9273 218.878 22.8661 218.878 20.3443C218.878 18.8409 219.072 17.4345 219.485 16.0766C219.897 14.743 220.503 13.5791 221.327 12.6091C222.103 11.6392 223.122 10.8632 224.334 10.2813C225.547 9.69931 227.002 9.40833 228.675 9.40833C230.105 9.40833 231.391 9.67508 232.579 10.1843C233.767 10.7178 234.785 11.3967 235.634 12.2696C237.356 14.064 238.204 16.1251 238.204 18.4287V21.2415L238.326 21.193ZM236.652 0L231.148 7.90495H225.886L220.382 0H224.746L228.505 5.33464L232.263 0H236.628H236.652Z" fill="#12120D"/>
<path d="M246.354 49.6119V15.0823H239.734V9.69922H258.697V15.0823H252.077V49.6119H246.354Z" fill="#12120D"/>
<path d="M255.543 49.6119L264.466 9.69922H269.243L278.167 49.6119H272.444L270.771 41.028H262.987L261.314 49.6119H255.591H255.543ZM269.655 35.6691L266.843 21.1929H266.721L263.909 35.6691H269.631H269.655Z" fill="#12120D"/>
<path d="M280.707 49.6119V9.69922H286.211L294.844 33.7535H294.965V9.69922H300.688V49.6119H295.305L286.551 25.6061H286.43V49.6119H280.707Z" fill="#12120D"/>
<path d="M324.001 38.2394V40.7128C324.001 41.9494 323.759 43.1133 323.298 44.2045C322.838 45.3199 322.183 46.2899 321.358 47.1386C320.534 47.9872 319.564 48.6904 318.473 49.1754C317.357 49.6846 316.193 49.9271 314.908 49.9271C313.817 49.9271 312.726 49.7816 311.611 49.4664C310.495 49.1754 309.477 48.6419 308.58 47.8902C307.682 47.1386 306.955 46.1686 306.373 45.0047C305.791 43.8165 305.5 42.3132 305.5 40.4945V18.5256C305.5 17.2161 305.718 16.0037 306.179 14.8883C306.615 13.7729 307.27 12.803 308.095 11.9785C308.919 11.1541 309.889 10.5236 311.029 10.0387C312.168 9.57793 313.429 9.33545 314.811 9.33545C317.503 9.33545 319.685 10.2084 321.383 11.9785C322.207 12.8272 322.862 13.8456 323.322 15.0338C323.783 16.222 324.026 17.4829 324.026 18.865V21.1201H318.303V19.2045C318.303 18.0891 317.988 17.1192 317.357 16.2947C316.727 15.4703 315.854 15.058 314.787 15.058C313.356 15.058 312.435 15.4945 311.95 16.3675C311.489 17.2404 311.247 18.3558 311.247 19.7137V40.1308C311.247 41.2947 311.489 42.2646 311.999 43.0406C312.508 43.8165 313.405 44.2288 314.714 44.2288C315.078 44.2288 315.49 44.156 315.927 44.0348C316.363 43.9135 316.751 43.6953 317.139 43.3801C317.479 43.0891 317.745 42.6769 317.988 42.1434C318.23 41.6099 318.327 40.9552 318.327 40.1793V38.2152H324.05L324.001 38.2394Z" fill="#12120D"/>
<path d="M328.656 49.6119V9.69922H345.703V15.0823H334.379V26.7943H344.248V32.1774H334.379V43.8893H345.703V49.6119H328.656Z" fill="#12120D"/>
</svg>
